<svg width="1101" height="1101" viewBox="0 0 1101 1101" fill="none" xmlns="http://www.w3.org/2000/svg">
<rect x="0.396103" y="0.396133" width="1100" height="1100" fill="#22272E"/>
<g filter="url(#filter0_d_5_1496)">
<path fill-rule="evenodd" clip-rule="evenodd" d="M550.126 125H550V830.675L550 830.675V975L975 552.117L972.872 550H832.08L652.565 728.621V226.929L550.126 125Z" fill="#F3F3F3"/>
<path fill-rule="evenodd" clip-rule="evenodd" d="M197.774 477.651L482 193.269V338.432L270.316 550.232L550 830.069V975H550.697L550.232 975.465L197.774 622.814L197.542 623.046L125 550.464L125.231 550.232L125 550.001L197.542 477.419L197.774 477.651ZM481.15 439.582L366.4 550L481.15 660.418V439.582Z" fill="#F3F3F3"/>
</g>
<defs>
<filter id="filter0_d_5_1496" x="70" y="70" width="960" height="960.465" filterUnits="userSpaceOnUse" color-interpolation-filters="sRGB">
<feFlood flood-opacity="0" result="BackgroundImageFix"/>
<feColorMatrix in="SourceAlpha" type="matrix" values="0 0 0 0 0 0 0 0 0 0 0 0 0 0 0 0 0 0 127 0" result="hardAlpha"/>
<feOffset/>
<feGaussianBlur stdDeviation="27.5"/>
<feComposite in2="hardAlpha" operator="out"/>
<feColorMatrix type="matrix" values="0 0 0 0 0.952941 0 0 0 0 0.952941 0 0 0 0 0.952941 0 0 0 0.8 0"/>
<feBlend mode="normal" in2="BackgroundImageFix" result="effect1_dropShadow_5_1496"/>
<feBlend mode="normal" in="SourceGraphic" in2="effect1_dropShadow_5_1496" result="shape"/>
</filter>
</defs>
</svg>
